PathFileType	4	(X/Y/Z)	Patient4_TMGait_0pt4_03_left_03.trc.trc
DataRate	CameraRate	NumFrames	NumMarkers	Units	OrigDataRate	OrigDataStartFrame	OrigNumFrames
74.866310160428	74.866310160428	5	33	mm	74.866310160428	89	       141
Frame#	Time	Sacral			L.Shoulder			Chest			R.Shoulder			Neck			R.ASIS			L.ASIS			R.Thigh.Superior			R.Thigh.Lateral			R.Thigh.Inferior			R.Patella			L.Thigh.Superior			L.Thigh.Lateral			L.Thigh.Inferior			L.Patella			L.Shank.Superior			L.Shank.Lateral			L.Shank.Inferior			R.Shank.Superior			R.Shank.Lateral			R.Shank.Inferior			R.Heel			R.Midfoot.Superior			R.Midfoot.Lateral			R.Toe			L.Heel			L.Midfoot.Lateral			L.Midfoot.Superior			L.Toe			L.Elbow			L.Wrist			R.Elbow			R.Wrist			
		X1	Y1	Z1	X2	Y2	Z2	X3	Y3	Z3	X4	Y4	Z4	X5	Y5	Z5	X6	Y6	Z6	X7	Y7	Z7	X8	Y8	Z8	X9	Y9	Z9	X10	Y10	Z10	X11	Y11	Z11	X12	Y12	Z12	X13	Y13	Z13	X14	Y14	Z14	X15	Y15	Z15	X16	Y16	Z16	X17	Y17	Z17	X18	Y18	Z18	X19	Y19	Z19	X20	Y20	Z20	X21	Y21	Z21	X22	Y22	Z22	X23	Y23	Z23	X24	Y24	Z24	X25	Y25	Z25	X26	Y26	Z26	X27	Y27	Z27	X28	Y28	Z28	X29	Y29	Z29	X30	Y30	Z30	X31	Y31	Z31	X32	Y32	Z32	X33	Y33	Z33	

89	4.645428571429	816.827697905054	997.287354768165	475.993496757528	988.235710193266	1433.623606574264	305.157227607884	1079.408468350257	1371.425410869290	475.963625374196	975.309948512517	1436.731933962479	642.052735640877	950.884917959689	1493.908624448406	462.874024554723	1042.047246312526	946.454782817561	608.257843176122	1041.526955450224	963.258233437613	333.050484018871	1097.950515619702	747.560403866376	577.392352427886	1025.547751936778	634.465140919893	640.683591527849	1105.941078200575	586.380487935524	561.118199121844	1111.965897060121	498.895718205310	569.649828821071	1072.841383993849	738.525247561852	348.994057777356	978.446823491609	630.019215192588	277.869396530723	1062.125804743060	541.621668993990	330.440744619371	1052.566573764512	459.661472429937	324.043089652890	989.862647289018	401.583542188404	318.517364149701	853.056865712706	343.155949305905	275.704383155676	857.645083149272	212.212945312496	328.443925875484	1087.327548179074	408.313658365805	580.367070368231	1020.633672699836	303.842244280753	645.268275161308	1065.308456472223	208.415630334599	585.225406650024	937.520991560022	42.696527699507	559.703176844346	1106.821234701438	97.922675528428	596.867863510720	1019.842068258524	37.199341630016	635.724246700303	1227.785057847475	46.894906351696	627.738240047226	682.615540654466	114.661462590234	376.059381894317	742.776806007334	78.016754937501	294.344627308717	843.374562824197	110.146397322851	309.410228702211	941.526300984102	34.734890003505	281.264000290448	990.066577666043	1083.551176036770	181.813633519618	1065.018270059749	832.979570458644	166.573738065334	952.579220429537	1085.162595131885	758.045794641702	1102.178147060409	870.892477138330	752.559946110057	
90	4.658785714286	817.062254859159	997.428216299344	480.352168835484	986.629416834186	1433.704926864944	308.225122795374	1079.862322557674	1371.526456320908	477.972839676703	977.779337459455	1436.799150018004	645.263476597776	951.185527687596	1493.997059004443	466.223373135186	1043.210063482864	946.593735712817	610.713190233885	1040.744246299948	963.164448346590	335.746711405512	1097.163535834793	746.821583031990	580.631836949217	1023.313551712261	634.323487930398	643.339466007979	1103.527954362815	585.718596825975	563.908364977727	1108.824352940107	498.221129296430	571.986232216941	1078.263832705252	740.753464584179	351.407157026817	988.489985738129	629.980882612880	279.182014341777	1075.057824695238	543.497621666462	331.582687612433	1066.723867173929	460.359524840678	324.417022457434	1002.003135086797	402.328056032325	318.834615937015	863.159618302874	348.941144892485	275.875386938015	863.204772442499	217.842135183455	327.881962973760	1083.752738502055	407.827903934235	582.252897069543	1016.582166989220	303.379410229376	646.467019941855	1060.837297326056	208.047456053891	585.994017930992	932.268192786548	42.686637278958	559.776203315765	1101.656171070630	97.717493479446	597.222149096422	1014.592159503002	37.145129214669	635.845288559039	1222.629652580320	46.452060126763	627.907000163272	684.338543579203	129.609633208792	375.068117009685	742.285171852436	88.792556545434	293.677790375784	844.573567953568	114.648928550247	308.569396561194	936.748243726071	33.680706254849	281.284884510767	979.298607865623	1083.192792660220	186.318000614688	1044.702089849274	829.950015113005	172.529985730230	962.278056891328	1085.789352187814	763.912228546453	1124.804477049675	881.636208299998	755.254594623766	
91	4.672142857143	816.980226665675	997.611008154158	484.539947188690	984.960928143384	1433.702881296908	311.130075290941	1080.329119698687	1371.437573814574	479.712638559233	980.471435354246	1436.768529416432	648.285147230319	951.606064160053	1494.030721363285	469.405848643060	1044.066818921400	946.637454057530	613.009966269486	1039.642143658012	962.899092477318	338.275825023257	1096.160296938867	746.105981788854	583.884872463538	1020.853122167899	634.176026040610	645.959224487697	1100.906210530472	585.075898268443	566.661202873188	1105.446008550695	497.598895122996	574.296729605761	1083.485900330819	743.322702559954	353.761532092904	998.545148031199	630.348688971582	280.440600023456	1087.841055626967	546.018235937055	332.910107675577	1080.966344410986	461.803372097341	325.221546080460	1014.517138146060	403.600844216727	319.450294698000	873.980879828155	355.049528547751	276.022035444511	869.516842351822	224.003368452345	327.565694355691	1080.014813221570	407.373337209125	584.092764331480	1012.411108334661	302.937059616220	647.665991958179	1056.271769302503	207.707914709190	586.757900007891	926.953805587337	42.698958692180	559.847871025322	1096.442294738221	97.466757498864	597.574029702478	1009.280757247532	37.088114988459	635.966543311217	1217.414611885389	45.955506300667	628.070296650826	687.172968214398	145.269569413393	374.070687997507	742.850707756934	100.537453818431	292.994392136569	846.570686051806	119.899050383604	308.013443207566	932.534252264636	32.645549176591	281.408509728782	968.079649674682	1083.028826832924	190.727903447580	1024.696637309195	827.682496785266	178.618125570042	972.135951269899	1086.627229625661	769.682226389570	1147.219912512493	893.777923362482	757.509546669694	
92	4.685500000000	816.597811820205	997.861893825345	488.549525892741	983.255432946732	1433.669275902519	313.854237369956	1080.794448405489	1371.202357965420	481.175614804084	983.342390096174	1436.686053025296	651.085275397361	952.136992918209	1494.051038281699	472.395105150169	1044.630276750018	946.622260740152	615.153551241801	1038.232028601945	962.536979168303	340.626419374470	1094.995662391627	745.448251985863	587.010753266379	1018.307823225772	634.046243310499	648.470840179797	1098.151640949152	584.474446917586	569.250452888935	1101.914549929694	497.038818220625	576.473669833581	1088.343342706301	746.273016709449	356.079742908899	1008.347791217491	631.213201252858	281.685854181153	1100.206507540835	549.241511890755	334.403465018677	1095.027618530223	464.048436868203	326.398744807460	1027.148969874047	405.458571133371	320.344666551004	885.262323048204	361.386172192988	276.180884264130	876.483456464836	230.550862439483	327.512459912306	1076.182174548612	406.959205115916	585.815214617767	1008.188022974668	302.543602694486	648.831512008175	1051.645454605963	207.405321586095	587.486642118403	921.594186935536	42.731341896187	559.932455428157	1091.188344273330	97.204429231131	597.906665861268	1003.925322097557	37.034207326507	636.091209132639	1212.151389508668	45.446264720630	628.228315539547	691.103265754308	161.068614282925	373.099273995406	744.597186301037	112.809109652327	292.327653249291	849.451255607365	125.767447964954	307.760204197796	929.242522568433	31.757400326848	281.658705112825	956.546593601676	1083.108762849170	195.092365809903	1005.061434435121	826.122887943593	184.818287104110	982.177420055719	1087.685218385364	775.252062015106	1169.238069056434	907.269493863368	759.292428341241	
93	4.698857142857	815.950388637945	998.209192964874	492.392143654260	981.528600303627	1433.660441209766	316.389377923359	1081.241453295243	1370.881675381980	482.365678193904	986.342186578125	1436.606310675989	653.641454168652	952.760487867319	1494.101587355990	475.177958201017	1044.931482023768	946.583675313774	617.145117762494	1036.533245478002	962.169776759442	342.793232532562	1093.694435388568	744.861839079054	589.883145651963	1015.753514974489	633.951410619072	650.807621259818	1095.290878873067	583.922192288832	571.576108614498	1098.265560798650	496.545737047783	578.427943276594	1092.695194482333	749.624449042460	358.385772192315	1017.651300069509	632.633859196791	282.950807205444	1111.919244838334	553.184677602086	336.015437921182	1108.656416132393	467.110530711572	327.845562463023	1039.653190687091	407.929431672766	321.459043191446	896.737445598209	367.818773930387	276.383216641939	884.025000508623	237.281185820242	327.707614573713	1072.279044573905	406.594488148208	587.363582989836	1003.938353508876	302.219042550947	649.929565164057	1046.971635400680	207.148125814119	588.156878325575	916.205845112409	42.779566905717	560.038479539575	1085.902741808427	96.958390215052	598.207958754592	998.542286799258	36.987281427272	636.218909655523	1206.852012094101	44.961019446185	628.381254606033	696.102214997765	176.320662058462	372.187487646539	747.648042019338	125.037388767453	291.711733296553	853.333979305805	132.032928708293	307.795164116667	927.316401811305	31.162579019053	282.045875876334	944.854847039617	1083.477929501238	199.457999670926	985.852858819737	825.226398680883	191.108622748353	992.415272244475	1088.983208364587	780.522276405513	1190.678532093164	922.039904925665	760.576122722624	
